<svg width="1024" height="1024" viewBox="0 0 1024 1024" fill="none" xmlns="http://www.w3.org/2000/svg">
<g clip-path="url(#clip0_9_60)">
<rect width="1024" height="1024" rx="200" fill="#AFA8BB"/>
<g filter="url(#filter0_d_9_60)">
<circle cx="512.5" cy="512.5" r="474.5" fill="#E3CBF1" fill-opacity="0.61" shape-rendering="crispEdges"/>
</g>
<path d="M495.449 109.421C539.409 116.593 571.41 114.761 603.449 131.421V132.421C604.608 135.802 603.337 136.642 597.949 136.421C546.2 129.048 533.099 123.525 495.449 114.921C476.239 112.287 432.989 123.258 369.949 137.421C322.411 151.067 302.022 171.626 260.949 200.921C229.351 225.156 210.907 255.922 178.449 300.421C150.275 340.363 141.909 367.167 120.949 414.421C102.782 459.957 111.04 491.239 120.949 551.921C128.611 593.601 133.114 613.861 140.949 652.921C156.014 713.604 174.234 728.793 200.949 767.921C233.299 812.66 257.017 826.578 303.449 847.421L413.449 894.921C468.663 916.112 500.486 905.766 556.949 894.921C603.204 885.325 629.289 878.195 675.949 863.921C722.361 847.735 740.628 828.489 768.449 791.421C779.799 774.02 788.449 754.921 797.949 744.921C807.449 734.921 811.98 738.075 812.449 744.921C812.918 751.767 775.25 794.805 774.449 795.921C746.285 834.613 728.093 855.182 679.449 870.421C632.325 883.983 605.615 890.919 556.949 900.921C500.728 912.493 469.315 924.927 412.449 900.921L298.449 852.921C249.794 830.616 225.119 816.316 195.949 772.421C170.638 731.326 151.255 722.375 135.949 652.921C127.808 613.822 122.15 593.037 115.949 551.921C108.421 495.348 95.3105 461.829 115.949 413.421C139.321 359.801 150.235 326.692 172.949 297.921C205.146 254.332 221.996 223.679 257.449 196.921C306.392 164.16 331.108 139.714 368.449 131.421C440.018 116.095 482.196 106.874 495.449 109.421Z" fill="black" stroke="black"/>
<path d="M181.425 279.847C196.637 263.114 198.805 238.545 199.123 233.244C199.441 227.943 195.02 218.201 191.959 209.91L184.34 195.61C182.083 195.573 186.486 191.811 177.434 205.534C168.382 219.257 167.075 224.066 165.738 227.256C164.4 230.446 153.369 264.206 181.425 279.847Z" fill="black"/>
<path d="M181.425 279.847C196.637 263.114 198.805 238.545 199.123 233.244C199.441 227.943 195.02 218.201 191.959 209.91L184.34 195.61C182.083 195.573 186.486 191.811 177.434 205.534C168.382 219.257 167.075 224.066 165.738 227.256C164.4 230.446 153.369 264.206 181.425 279.847ZM181.425 279.847L179.625 291.463M181.425 279.847L181.217 259.845" stroke="black" stroke-width="4"/>
<path d="M107.818 525.994C106.757 503.405 90.9294 484.488 87.4091 480.513C83.8889 476.537 73.8761 472.769 65.8515 469.065L50.3549 464.331C48.7319 465.899 49.1896 460.126 52.4816 476.232C55.7736 492.339 58.2473 496.665 59.555 499.868C60.8627 503.07 76.914 534.752 107.818 525.994Z" fill="black"/>
<path d="M107.818 525.994C106.757 503.405 90.9294 484.488 87.4091 480.513C83.8889 476.537 73.8761 472.769 65.8515 469.065L50.3549 464.331C48.7319 465.899 49.1896 460.126 52.4816 476.232C55.7736 492.339 58.2473 496.665 59.555 499.868C60.8627 503.07 76.914 534.752 107.818 525.994ZM107.818 525.994L114.753 535.485M107.818 525.994L93.5361 511.988" stroke="black" stroke-width="4"/>
<path d="M187.324 765.816C172.746 753.215 151.771 751.891 147.249 751.733C142.727 751.574 134.522 755.548 127.524 758.332L115.505 765.127C115.521 767.05 112.223 763.379 124.106 770.798C135.988 778.217 140.113 779.228 142.859 780.3C145.605 781.371 174.598 790.049 187.324 765.816Z" fill="black"/>
<path d="M187.324 765.816C172.746 753.215 151.771 751.891 147.249 751.733C142.727 751.574 134.522 755.548 127.524 758.332L115.505 765.127C115.521 767.05 112.223 763.379 124.106 770.798C135.988 778.217 140.113 779.228 142.859 780.3C145.605 781.371 174.598 790.049 187.324 765.816ZM187.324 765.816L197.258 767.102M187.324 765.816L170.29 766.42" stroke="black" stroke-width="4"/>
<path d="M722.444 854.954C706.461 865.036 699.235 884.338 697.796 888.535C696.358 892.733 697.746 901.565 698.361 908.924L701.307 922.14C703.116 922.674 698.731 924.721 709.082 915.688C719.433 906.656 721.558 903.075 723.346 900.805C725.135 898.534 741.549 873.807 722.444 854.954Z" fill="black"/>
<path d="M722.444 854.954C706.461 865.036 699.235 884.338 697.796 888.535C696.358 892.733 697.746 901.565 698.361 908.924L701.307 922.14C703.116 922.674 698.731 924.721 709.082 915.688C719.433 906.656 721.558 903.075 723.346 900.805C725.135 898.534 741.549 873.807 722.444 854.954ZM722.444 854.954L726.484 846M722.444 854.954L718.15 871.108" stroke="black" stroke-width="4"/>
<path d="M789.639 783.721C777.058 797.821 775.438 818.368 775.213 822.799C774.988 827.231 778.759 835.337 781.381 842.241L787.858 854.131C789.744 854.145 786.094 857.322 793.551 845.785C801.009 834.248 802.063 830.219 803.156 827.543C804.249 824.867 813.204 796.572 789.639 783.721Z" fill="black"/>
<path d="M789.639 783.721C777.058 797.821 775.438 818.368 775.213 822.799C774.988 827.231 778.759 835.337 781.381 842.241L787.858 854.131C789.744 854.145 786.094 857.322 793.551 845.785C801.009 834.248 802.063 830.219 803.156 827.543C804.249 824.867 813.204 796.572 789.639 783.721ZM789.639 783.721L791.053 774M789.639 783.721L789.969 800.433" stroke="black" stroke-width="4"/>
<path d="M138.622 691.487C128.701 678.453 111.485 673.681 107.751 672.758C104.017 671.835 96.4969 673.704 90.1887 674.795L79.0011 678.344C78.6781 679.946 76.5773 676.315 85.1631 684.567C93.7488 692.818 97.0027 694.38 99.0993 695.752C101.196 697.124 123.795 709.417 138.622 691.487Z" fill="black"/>
<path d="M138.622 691.487C128.701 678.453 111.485 673.681 107.751 672.758C104.017 671.835 96.4969 673.704 90.1887 674.795L79.0011 678.344C78.6781 679.946 76.5773 676.315 85.1631 684.567C93.7488 692.818 97.0027 694.38 99.0993 695.752C101.196 697.124 123.795 709.417 138.622 691.487ZM138.622 691.487L146.66 694.296M138.622 691.487L124.347 689.008" stroke="black" stroke-width="4"/>
<path d="M633.764 887.827C615.836 893.799 604.209 910.817 601.809 914.549C599.409 918.282 598.647 927.189 597.487 934.483L597.191 948.02C598.821 948.97 594.074 949.91 606.282 943.612C618.491 937.314 621.409 934.344 623.689 932.566C625.968 930.788 647.813 910.698 633.764 887.827Z" fill="black"/>
<path d="M633.764 887.827C615.836 893.799 604.209 910.817 601.809 914.549C599.409 918.282 598.647 927.189 597.487 934.483L597.191 948.02C598.821 948.97 594.074 949.91 606.282 943.612C618.491 937.314 621.409 934.344 623.689 932.566C625.968 930.788 647.813 910.698 633.764 887.827ZM633.764 887.827L639.826 880.097M633.764 887.827L625.736 902.488" stroke="black" stroke-width="4"/>
<path d="M530.533 910.329C511.764 912.517 496.908 926.804 493.797 929.968C490.686 933.132 488.122 941.696 485.498 948.6L482.445 961.791C483.847 963.054 479.007 963.006 492.245 959.332C505.482 955.658 508.945 953.346 511.539 952.071C514.134 950.796 539.619 935.586 530.533 910.329Z" fill="black"/>
<path d="M530.533 910.329C511.764 912.517 496.908 926.804 493.797 929.968C490.686 933.132 488.122 941.696 485.498 948.6L482.445 961.791C483.847 963.054 479.007 963.006 492.245 959.332C505.482 955.658 508.945 953.346 511.539 952.071C514.134 950.796 539.619 935.586 530.533 910.329ZM530.533 910.329L538.046 904M530.533 910.329L519.682 923.043" stroke="black" stroke-width="4"/>
<path d="M221.78 809.334C206.768 799.655 187.345 801.156 183.174 801.596C179.003 802.036 171.987 806.746 165.925 810.207L155.773 818C156.037 819.763 152.534 816.821 164.401 822.092C176.268 827.363 180.184 827.756 182.843 828.384C185.502 829.012 213.237 833.223 221.78 809.334Z" fill="black"/>
<path d="M221.78 809.334C206.768 799.655 187.345 801.156 183.174 801.596C179.003 802.036 171.987 806.746 165.925 810.207L155.773 818C156.037 819.763 152.534 816.821 164.401 822.092C176.268 827.363 180.184 827.756 182.843 828.384C185.502 829.012 213.237 833.223 221.78 809.334ZM221.78 809.334L231.064 809.228M221.78 809.334L206.223 812.093" stroke="black" stroke-width="4"/>
<path d="M394.189 902.18C375.393 900.238 357.788 910.956 354.064 913.368C350.34 915.781 345.976 923.584 341.915 929.752L336.069 941.966C337.162 943.502 332.449 942.404 346.169 941.693C359.888 940.983 363.771 939.479 366.58 938.798C369.389 938.117 397.57 928.808 394.189 902.18Z" fill="black"/>
<path d="M394.189 902.18C375.393 900.238 357.788 910.956 354.064 913.368C350.34 915.781 345.976 923.584 341.915 929.752L336.069 941.966C337.162 943.502 332.449 942.404 346.169 941.693C359.888 940.983 363.771 939.479 366.58 938.798C369.389 938.117 397.57 928.808 394.189 902.18ZM394.189 902.18L402.897 897.634M394.189 902.18L380.835 912.233" stroke="black" stroke-width="4"/>
<path d="M293.935 854.358C275.869 848.816 256.523 855.925 252.403 857.572C248.282 859.218 242.492 866.03 237.314 871.296L229.216 882.147C229.991 883.867 225.58 881.877 239.177 883.834C252.775 885.792 256.875 885.067 259.763 884.942C262.651 884.818 292.1 881.136 293.935 854.358Z" fill="black"/>
<path d="M293.935 854.358C275.869 848.816 256.523 855.925 252.403 857.572C248.282 859.218 242.492 866.03 237.314 871.296L229.216 882.147C229.991 883.867 225.58 881.877 239.177 883.834C252.775 885.792 256.875 885.067 259.763 884.942C262.651 884.818 292.1 881.136 293.935 854.358ZM293.935 854.358L303.358 851.582M293.935 854.358L278.888 861.637" stroke="black" stroke-width="4"/>
<path d="M518.315 892.661C513.294 870.612 494.384 854.777 490.218 851.484C486.053 848.19 475.533 846.243 466.982 844.01L450.894 842.078C449.572 843.907 449.006 838.144 455.083 853.419C461.159 868.695 464.356 872.517 466.207 875.44C468.058 878.362 489.436 906.724 518.315 892.661Z" fill="black"/>
<path d="M518.315 892.661C513.294 870.612 494.384 854.777 490.218 851.484C486.053 848.19 475.533 846.243 466.982 844.01L450.894 842.078C449.572 843.907 449.006 838.144 455.083 853.419C461.159 868.695 464.356 872.517 466.207 875.44C468.058 878.362 489.436 906.724 518.315 892.661ZM518.315 892.661L526.814 900.783M518.315 892.661L501.791 881.388" stroke="black" stroke-width="4"/>
<path d="M600.675 878.116C590.955 857.698 569.039 846.381 564.255 844.078C559.47 841.775 548.779 842.175 539.946 841.865L523.825 843.497C522.936 845.572 521.123 840.071 530.392 853.649C539.661 867.226 543.617 870.258 546.062 872.705C548.507 875.151 575.569 898.153 600.675 878.116Z" fill="black"/>
<path d="M600.675 878.116C590.955 857.698 569.039 846.381 564.255 844.078C559.47 841.775 548.779 842.175 539.946 841.865L523.825 843.497C522.936 845.572 521.123 840.071 530.392 853.649C539.661 867.226 543.617 870.258 546.062 872.705C548.507 875.151 575.569 898.153 600.675 878.116ZM600.675 878.116L610.743 884.184M600.675 878.116L582.086 870.729" stroke="black" stroke-width="4"/>
<path d="M691.566 849.665C679.956 830.26 657.067 821.07 652.086 819.23C647.105 817.39 636.499 818.801 627.677 819.33L611.783 822.482C611.094 824.631 608.769 819.327 619.282 831.965C629.796 844.604 634.02 847.247 636.686 849.451C639.352 851.655 668.471 871.99 691.566 849.665Z" fill="black"/>
<path d="M691.566 849.665C679.956 830.26 657.067 821.07 652.086 819.23C647.105 817.39 636.499 818.801 627.677 819.33L611.783 822.482C611.094 824.631 608.769 819.327 619.282 831.965C629.796 844.604 634.02 847.247 636.686 849.451C639.352 851.655 668.471 871.99 691.566 849.665ZM691.566 849.665L702.164 854.752M691.566 849.665L672.361 844.072" stroke="black" stroke-width="4"/>
<path d="M759.527 790.129C738.97 780.707 714.9 786.091 709.752 787.395C704.605 788.699 696.662 795.866 689.689 801.297L678.372 812.894C679.021 815.055 674.102 812 689.923 816.465C705.745 820.93 710.724 820.717 714.169 821.025C717.615 821.332 753.13 821.607 759.527 790.129Z" fill="black"/>
<path d="M759.527 790.129C738.97 780.707 714.9 786.091 709.752 787.395C704.605 788.699 696.662 795.866 689.689 801.297L678.372 812.894C679.021 815.055 674.102 812 689.923 816.465C705.745 820.93 710.724 820.717 714.169 821.025C717.615 821.332 753.13 821.607 759.527 790.129ZM759.527 790.129L771.143 788.322M759.527 790.129L740.53 796.393" stroke="black" stroke-width="4"/>
<path d="M443.637 895.182C444.009 872.572 429.411 852.691 426.15 848.5C422.888 844.31 413.134 839.914 405.36 835.71L390.195 830.003C388.476 831.466 389.298 825.733 391.564 842.016C393.829 858.299 396.024 862.773 397.126 866.052C398.228 869.331 412.24 901.966 443.637 895.182Z" fill="black"/>
<path d="M443.637 895.182C444.009 872.572 429.411 852.691 426.15 848.5C422.888 844.31 413.134 839.914 405.36 835.71L390.195 830.003C388.476 831.466 389.298 825.733 391.564 842.016C393.829 858.299 396.024 862.773 397.126 866.052C398.228 869.331 412.24 901.966 443.637 895.182ZM443.637 895.182L449.957 905.094M443.637 895.182L430.271 880.3" stroke="black" stroke-width="4"/>
<path d="M343.2 856.587C349.756 834.945 341.167 811.824 339.179 806.9C337.191 801.976 329.016 795.075 322.692 788.9L309.672 779.255C307.618 780.19 309.98 774.903 307.695 791.183C305.41 807.463 306.294 812.367 306.455 815.823C306.617 819.278 311.146 854.505 343.2 856.587Z" fill="black"/>
<path d="M343.2 856.587C349.756 834.945 341.167 811.824 339.179 806.9C337.191 801.976 329.016 795.075 322.692 788.9L309.672 779.255C307.618 780.19 309.98 774.903 307.695 791.183C305.41 807.463 306.294 812.367 306.455 815.823C306.617 819.278 311.146 854.505 343.2 856.587ZM343.2 856.587L346.561 867.852M343.2 856.587L334.425 838.611" stroke="black" stroke-width="4"/>
<path d="M257.942 817.297C271.439 801.916 268.269 775.75 267.415 770.078C266.561 764.407 259.284 753.093 253.892 743.589L241.924 726.781C239.344 726.34 243.499 723.057 236.332 736.279C229.165 749.501 228.78 754.466 227.988 757.676C227.195 760.886 222.374 795.41 257.942 817.297Z" fill="black"/>
<path d="M257.942 817.297C271.439 801.916 268.269 775.75 267.415 770.078C266.561 764.407 259.284 753.093 253.892 743.589L241.924 726.781C239.344 726.34 243.499 723.057 236.332 736.279C229.165 749.501 228.78 754.466 227.988 757.676C227.195 760.886 222.374 795.41 257.942 817.297ZM257.942 817.297L258.558 829.531M257.942 817.297L253.113 795.644" stroke="black" stroke-width="4"/>
<path d="M180.115 732.609C197.318 726.446 204.984 701.685 206.508 696.226C208.031 690.768 206.464 676.835 205.743 665.524L202.457 644.193C200.497 642.395 205.223 641.776 194.1 649.497C182.978 657.218 180.707 661.377 178.791 663.77C176.874 666.162 159.316 693.913 180.115 732.609Z" fill="black"/>
<path d="M180.115 732.609C197.318 726.446 204.984 701.685 206.508 696.226C208.031 690.768 206.464 676.835 205.743 665.524L202.457 644.193C200.497 642.395 205.223 641.776 194.1 649.497C182.978 657.218 180.707 661.377 178.791 663.77C176.874 666.162 159.316 693.913 180.115 732.609ZM180.115 732.609L175.814 743.713M180.115 732.609L184.634 710.913" stroke="black" stroke-width="4"/>
<path d="M143.679 642.5C161.566 639.471 173.728 618.292 176.247 613.599C178.766 608.907 179.896 596.128 181.348 585.835L182.217 566.141C180.655 564.234 185.364 564.37 173.088 569.694C160.813 575.018 157.816 578.431 155.498 580.305C153.18 582.179 130.839 604.6 143.679 642.5Z" fill="black"/>
<path d="M143.679 642.5C161.566 639.471 173.728 618.292 176.247 613.599C178.766 608.907 179.896 596.128 181.348 585.835L182.217 566.141C180.655 564.234 185.364 564.37 173.088 569.694C160.813 575.018 157.816 578.431 155.498 580.305C153.18 582.179 130.839 604.6 143.679 642.5ZM143.679 642.5L137.387 651.871M143.679 642.5L152.201 623.622" stroke="black" stroke-width="4"/>
<path d="M120.065 600.094C110.695 581.35 90.1893 571.255 85.7154 569.207C81.2415 567.158 71.3434 567.719 63.1544 567.589L48.2471 569.388C47.4599 571.326 45.6828 566.262 54.5124 578.677C63.342 591.091 67.0604 593.829 69.3695 596.053C71.6786 598.276 97.1611 619.105 120.065 600.094Z" fill="black"/>
<path d="M120.065 600.094C110.695 581.35 90.1893 571.255 85.7154 569.207C81.2415 567.158 71.3434 567.719 63.1544 567.589L48.2471 569.388C47.4599 571.326 45.6828 566.262 54.5124 578.677C63.342 591.091 67.0604 593.829 69.3695 596.053C71.6786 598.276 97.1611 619.105 120.065 600.094ZM120.065 600.094L129.501 605.537M120.065 600.094L102.71 593.581" stroke="black" stroke-width="4"/>
<path d="M165.377 332.294C180.499 349.109 204.727 353.731 209.969 354.58C215.21 355.429 225.347 352.007 233.904 349.794L248.896 343.649C249.16 341.407 252.461 346.166 239.715 335.782C226.97 325.398 222.317 323.615 219.277 321.964C216.237 320.313 183.755 305.95 165.377 332.294Z" fill="black"/>
<path d="M165.377 332.294C180.499 349.109 204.727 353.731 209.969 354.58C215.21 355.429 225.347 352.007 233.904 349.794L248.896 343.649C249.16 341.407 252.461 346.166 239.715 335.782C226.97 325.398 222.317 323.615 219.277 321.964C216.237 320.313 183.755 305.95 165.377 332.294ZM165.377 332.294L154 329.337M165.377 332.294L185.299 334.094" stroke="black" stroke-width="4"/>
<path d="M227.967 242.301C239.86 255.417 265.865 252.111 271.539 251.231C277.212 250.351 289.761 243.131 300.143 237.773L319.04 225.912C320.037 223.379 322.294 227.428 311.09 220.501C299.886 213.575 295.17 213.235 292.241 212.482C289.312 211.729 256.989 207.263 227.967 242.301Z" fill="black"/>
<path d="M227.967 242.301C239.86 255.417 265.865 252.111 271.539 251.231C277.212 250.351 289.761 243.131 300.143 237.773L319.04 225.912C320.037 223.379 322.294 227.428 311.09 220.501C299.886 213.575 295.17 213.235 292.241 212.482C289.312 211.729 256.989 207.263 227.967 242.301ZM227.967 242.301L216 242.997M227.967 242.301L249.974 237.402" stroke="black" stroke-width="4"/>
<path d="M445.083 130.158C451.743 151.769 471.788 166.141 476.188 169.113C480.589 172.085 491.225 173.238 499.92 174.824L516.107 175.544C517.288 173.621 518.285 179.326 511.08 164.549C503.875 149.772 500.401 146.199 498.336 143.424C496.271 140.649 472.827 113.97 445.083 130.158Z" fill="black"/>
<path d="M445.083 130.158C451.743 151.769 471.788 166.141 476.188 169.113C480.589 172.085 491.225 173.238 499.92 174.824L516.107 175.544C517.288 173.621 518.285 179.326 511.08 164.549C503.875 149.772 500.401 146.199 498.336 143.424C496.271 140.649 472.827 113.97 445.083 130.158ZM445.083 130.158L436 122.696M445.083 130.158L462.406 140.16" stroke="black" stroke-width="4"/>
<path d="M552.354 133.533C554.427 156.052 571.087 174.24 574.782 178.053C578.477 181.867 588.648 185.183 596.831 188.523L612.524 192.558C614.075 190.918 613.877 196.706 609.866 180.763C605.855 164.82 603.19 160.61 601.74 157.469C600.29 154.328 582.834 123.398 552.354 133.533Z" fill="black"/>
<path d="M552.354 133.533C554.427 156.052 571.087 174.24 574.782 178.053C578.477 181.867 588.648 185.183 596.831 188.523L612.524 192.558C614.075 190.918 613.877 196.706 609.866 180.763C605.855 164.82 603.19 160.61 601.74 157.469C600.29 154.328 582.834 123.398 552.354 133.533ZM552.354 133.533L545 124.362M552.354 133.533L567.249 146.884" stroke="black" stroke-width="4"/>
<path d="M601.228 134.773C606.754 152.482 624.977 163.62 628.983 165.913C632.989 168.205 642.861 168.729 650.911 169.692L665.969 169.628C667.129 167.979 667.878 172.685 661.63 160.684C655.382 148.683 652.257 145.853 650.421 143.628C648.584 141.404 627.58 120.165 601.228 134.773Z" fill="black"/>
<path d="M601.228 134.773C606.754 152.482 624.977 163.62 628.983 165.913C632.989 168.205 642.861 168.729 650.911 169.692L665.969 169.628C667.129 167.979 667.878 172.685 661.63 160.684C655.382 148.683 652.257 145.853 650.421 143.628C648.584 141.404 627.58 120.165 601.228 134.773ZM601.228 134.773L593 128.935M601.228 134.773L617.052 142.385" stroke="black" stroke-width="4"/>
<path d="M421.023 114.891C443.282 110.904 459.982 92.7527 463.466 88.7457C466.951 84.7387 469.386 74.3212 472.016 65.8833L474.697 49.903C472.931 48.4975 478.715 48.2012 463.172 53.5581C447.63 58.915 443.662 61.9298 440.656 63.6425C437.651 65.3553 408.323 85.387 421.023 114.891Z" fill="black"/>
<path d="M421.023 114.891C443.282 110.904 459.982 92.7527 463.466 88.7457C466.951 84.7387 469.386 74.3212 472.016 65.8833L474.697 49.903C472.931 48.4975 478.715 48.2012 463.172 53.5581C447.63 58.915 443.662 61.9298 440.656 63.6425C437.651 65.3553 408.323 85.387 421.023 114.891ZM421.023 114.891L412.513 123.001M421.023 114.891L433.054 98.9104" stroke="black" stroke-width="4"/>
<path d="M254.059 192.333C271.809 178.321 277.976 154.44 279.159 149.263C280.343 144.087 277.578 133.752 275.919 125.071L270.747 109.714C268.527 109.308 273.488 106.319 262.308 118.372C251.128 130.425 249.05 134.954 247.208 137.882C245.365 140.81 228.948 172.304 254.059 192.333Z" fill="black"/>
<path d="M254.059 192.333C271.809 178.321 277.976 154.44 279.159 149.263C280.343 144.087 277.578 133.752 275.919 125.071L270.747 109.714C268.527 109.308 273.488 106.319 262.308 118.372C251.128 130.425 249.05 134.954 247.208 137.882C245.365 140.81 228.948 172.304 254.059 192.333ZM254.059 192.333L250.379 203.498M254.059 192.333L257.134 172.568" stroke="black" stroke-width="4"/>
<path d="M330.975 161.272C344.118 179.674 367.675 186.982 372.789 188.412C377.902 189.843 388.358 187.578 397.109 186.338L412.696 181.91C413.209 179.712 415.956 184.811 404.454 173.064C392.952 161.318 388.528 159.026 385.692 157.044C382.857 155.063 352.187 137.152 330.975 161.272Z" fill="black"/>
<path d="M330.975 161.272C344.118 179.674 367.675 186.982 372.789 188.412C377.902 189.843 388.358 187.578 397.109 186.338L412.696 181.91C413.209 179.712 415.956 184.811 404.454 173.064C392.952 161.318 388.528 159.026 385.692 157.044C382.857 155.063 352.187 137.152 330.975 161.272ZM330.975 161.272L320 157.059M330.975 161.272L350.57 165.292" stroke="black" stroke-width="4"/>
<path d="M352.328 134.947C372.668 125.063 383.808 103.058 386.073 98.2548C388.338 93.4519 387.852 82.7644 388.091 73.9295L386.329 57.8219C384.248 56.9489 389.734 55.0926 376.231 64.4703C362.728 73.848 359.729 77.8274 357.302 80.2921C354.874 82.7569 332.091 110.003 352.328 134.947Z" fill="black"/>
<path d="M352.328 134.947C372.668 125.063 383.808 103.058 386.073 98.2548C388.338 93.4519 387.852 82.7644 388.091 73.9295L386.329 57.8219C384.248 56.9489 389.734 55.0926 376.231 64.4703C362.728 73.848 359.729 77.8274 357.302 80.2921C354.874 82.7569 332.091 110.003 352.328 134.947ZM352.328 134.947L346.341 145.064M352.328 134.947L359.566 116.299" stroke="black" stroke-width="4"/>
<path d="M518.037 107.443C540.041 112.657 562.591 102.664 567.384 100.378C572.176 98.0915 578.562 89.5076 584.336 82.8167L593.163 69.2285C592.104 67.2357 597.527 69.2687 581.137 67.9881C564.747 66.7074 559.907 67.8912 556.467 68.2643C553.028 68.6375 518.147 75.3222 518.037 107.443Z" fill="black"/>
<path d="M518.037 107.443C540.041 112.657 562.591 102.664 567.384 100.378C572.176 98.0915 578.562 89.5076 584.336 82.8167L593.163 69.2285C592.104 67.2357 597.527 69.2687 581.137 67.9881C564.747 66.7074 559.907 67.8912 556.468 68.2643C553.028 68.6375 518.147 75.3222 518.037 107.443ZM518.037 107.443L507 111.49M518.037 107.443L535.44 97.581" stroke="black" stroke-width="4"/>
<path d="M117.665 475.719C139.728 470.759 155.615 451.893 158.921 447.737C162.226 443.581 164.202 433.067 166.459 424.522L168.437 408.439C166.611 407.112 172.376 406.563 157.084 412.596C141.791 418.63 137.959 421.816 135.032 423.658C132.104 425.501 103.683 446.8 117.665 475.719Z" fill="black"/>
<path d="M117.665 475.719C139.728 470.759 155.615 451.893 158.921 447.737C162.226 443.581 164.202 433.067 166.459 424.522L168.437 408.439C166.611 407.112 172.376 406.563 157.084 412.596C141.791 418.63 137.959 421.816 135.032 423.658C132.104 425.501 103.683 446.8 117.665 475.719ZM117.665 475.719L109.519 484.194M117.665 475.719L128.984 459.226" stroke="black" stroke-width="4"/>
<path d="M120.523 387.221C128.886 366.21 122.285 342.446 120.721 337.371C119.157 332.296 111.594 324.729 105.816 318.041L93.6583 307.329C91.5324 308.087 94.3337 303.018 90.6794 319.047C87.0251 335.075 87.4912 340.037 87.3595 343.493C87.2277 346.95 88.7604 382.433 120.523 387.221Z" fill="black"/>
<path d="M120.523 387.221C128.886 366.21 122.285 342.446 120.721 337.371C119.157 332.296 111.594 324.729 105.816 318.041L93.6583 307.329C91.5324 308.087 94.3337 303.018 90.6794 319.047C87.0251 335.075 87.4912 340.037 87.3595 343.493C87.2277 346.95 88.7604 382.433 120.523 387.221ZM120.523 387.221L122.919 398.729M120.523 387.221L113.301 368.567" stroke="black" stroke-width="4"/>
<path d="M475.2 574.2C454.4 574.2 436.8 573.667 422.4 572.6C408.533 571 390.133 568.6 367.2 565.4L366.4 649.4C365.867 663.8 365.6 684.333 365.6 711C365.6 724.867 361.6 735.8 353.6 743.8C346.133 751.267 337.6 755 328 755C310.4 755 297.333 752.867 288.8 748.6C280.267 743.8 276 735.533 276 723.8C276 708.333 277.333 686.467 280 658.2C285.867 597.4 288.8 535 288.8 471C288.8 411.267 286.933 355 283.2 302.2C283.733 294.733 287.467 286.2 294.4 276.6C301.867 267 311.2 261.667 322.4 260.6C334.667 260.6 354.133 258.467 380.8 254.2C408.533 249.933 429.6 247.8 444 247.8C487.733 247.8 521.6 252.067 545.6 260.6C570.133 269.133 594.667 283.267 619.2 303C645.867 344.6 659.2 373.933 659.2 391C659.2 426.733 652 458.467 637.6 486.2C623.2 513.933 602.133 535.533 574.4 551C546.667 566.467 513.6 574.2 475.2 574.2ZM456.8 315.8C439.733 315.8 424.8 316.867 412 319C399.733 320.6 384.8 323.533 367.2 327.8C369.333 376.867 370.4 412.6 370.4 435C370.4 457.933 369.6 477.133 368 492.6C390.933 497.4 409.067 500.6 422.4 502.2C435.733 503.267 450.667 503.8 467.2 503.8C506.667 503.8 534.4 493.667 550.4 473.4C566.933 452.6 575.2 428.6 575.2 401.4C575.2 393.4 572.8 383.533 568 371.8C563.2 360.067 558.933 352.333 555.2 348.6C540.8 335.8 526.667 327.267 512.8 323C499.467 318.2 480.8 315.8 456.8 315.8Z" fill="#28003C"/>
<path d="M590.4 486.6C629.333 491.4 658.133 503.933 676.8 524.2C696 543.933 705.6 568.467 705.6 597.8C705.6 627.133 694.667 654.867 672.8 681C651.467 707.133 624 727.4 590.4 741.8C575.467 747.667 555.733 751.933 531.2 754.6C507.2 757.267 482.4 758.6 456.8 758.6C414.133 758.6 370.4 754.6 325.6 746.6C317.6 745 309.067 741 300 734.6C291.467 728.2 287.2 718.867 287.2 706.6C286.667 657.533 284.8 589.267 281.6 501.8L280.8 457.8C278.667 389.533 277.6 335.933 277.6 297C277.6 290.067 281.6 282.067 289.6 273C298.133 263.4 308.267 258.067 320 257C326.933 257 333.6 256.733 340 256.2C400.267 250.333 440.533 247.4 460.8 247.4C500.8 247.4 536 251.4 566.4 259.4C597.333 266.867 622.933 280.733 643.2 301C650.667 309.533 656.8 320.467 661.6 333.8C666.4 346.6 668.8 359.133 668.8 371.4C669.333 397.533 662.4 421.533 648 443.4C634.133 465.267 614.933 479.667 590.4 486.6ZM465.6 315.4C447.467 315.4 428.533 316.467 408.8 318.6C389.6 320.733 373.333 323.4 360 326.6L364.8 477.8L393.6 477C440 472.2 474.133 468.2 496 465C509.867 461.8 523.467 455.667 536.8 446.6C550.133 437 561.067 427.133 569.6 417C578.667 406.333 583.2 398.333 583.2 393C583.2 385 581.6 377 578.4 369C575.2 360.467 571.733 354.333 568 350.6C553.6 336.733 538.933 327.4 524 322.6C509.067 317.8 489.6 315.4 465.6 315.4ZM367.2 688.2C394.4 691.933 420.267 693.8 444.8 693.8C498.667 693.8 541.067 686.867 572 673C603.467 658.6 619.2 631.4 619.2 591.4C619.2 575.4 607.2 562.067 583.2 551.4C559.2 540.733 533.333 535.4 505.6 535.4C486.933 535.4 463.2 537.533 434.4 541.8C411.467 545 389.067 547.133 367.2 548.2C368.267 580.2 368.8 600.467 368.8 609C368.8 625.533 368.533 638.067 368 646.6L367.2 688.2Z" fill="#8027AA" fill-opacity="0.73"/>
<path d="M742.2 259.4C749.667 259.4 758.733 264.467 769.4 274.6C780.6 284.2 786.2 292.467 786.2 299.4C786.2 331.933 785.133 376.467 783 433C782.467 446.867 781.933 463.667 781.4 483.4C780.867 502.6 780.6 525 780.6 550.6C780.6 631.667 785.4 691.4 795 729.8C794.467 742.6 789.4 751.933 779.8 757.8C770.2 763.133 760.6 765.8 751 765.8C729.667 765.8 715.533 758.333 708.6 743.4C702.2 728.467 699 707.133 699 679.4C699 576.467 700.067 481.8 702.2 395.4C640.867 463.667 593.133 521 559 567.4C559 567.4 554.2 570.6 544.6 577C535.533 585 528.067 589 522.2 589C508.333 589 496.867 585.533 487.8 578.6C478.733 571.667 469.933 561.533 461.4 548.2L423 493.8C396.333 456.467 376.867 428.2 364.6 409C364.6 458.067 367 524.733 371.8 609C375.533 657.533 377.4 694.067 377.4 718.6C377.4 731.4 374.2 742.333 367.8 751.4C361.4 759.933 351.267 764.2 337.4 764.2C323.533 764.2 312.067 761.533 303 756.2C294.467 750.867 289.933 742.867 289.4 732.2C289.933 723.133 290.2 708.2 290.2 687.4C290.2 645.8 288.867 595.133 286.2 535.4L284.6 492.2L283 436.2C282.467 419.667 281.933 400.467 281.4 378.6C280.867 356.2 280.6 331.933 280.6 305.8C280.6 273.8 297.933 257.8 332.6 257.8C343.267 257.8 353.933 260.467 364.6 265.8C375.8 271.133 384.067 278.867 389.4 289C393.667 307.667 409.4 338.6 436.6 381.8C463.8 425 490.467 465.533 516.6 503.4C540.067 473.533 559.267 451.133 574.2 436.2C599.8 410.067 620.867 385.8 637.4 363.4C654.467 341 672.867 314.067 692.6 282.6C697.4 276.2 704.333 270.867 713.4 266.6C722.467 261.8 732.067 259.4 742.2 259.4Z" fill="#570080" fill-opacity="0.38"/>
</g>
<defs>
<filter id="filter0_d_9_60" x="33" y="33" width="969" height="969" filterUnits="userSpaceOnUse" color-interpolation-filters="sRGB">
<feFlood flood-opacity="0" result="BackgroundImageFix"/>
<feColorMatrix in="SourceAlpha" type="matrix" values="0 0 0 0 0 0 0 0 0 0 0 0 0 0 0 0 0 0 127 0" result="hardAlpha"/>
<feMorphology radius="5" operator="dilate" in="SourceAlpha" result="effect1_dropShadow_9_60"/>
<feOffset dx="5" dy="5"/>
<feGaussianBlur stdDeviation="2.5"/>
<feComposite in2="hardAlpha" operator="out"/>
<feColorMatrix type="matrix" values="0 0 0 0 0 0 0 0 0 0 0 0 0 0 0 0 0 0 0.25 0"/>
<feBlend mode="normal" in2="BackgroundImageFix" result="effect1_dropShadow_9_60"/>
<feBlend mode="normal" in="SourceGraphic" in2="effect1_dropShadow_9_60" result="shape"/>
</filter>
<clipPath id="clip0_9_60">
<rect width="1024" height="1024" rx="200" fill="white"/>
</clipPath>
</defs>
</svg>
